# xmcd
#
# Track frame offsets: 
#        150
#        18578
#        33338
#        50971
#        70794
#        90357
#        106368
#        124679
#        144631
#        160827
#        180430
#        196183
#        215160
#
# Disc length: 3088 seconds
#
# Revision: 0
# Processed by: cddbd v1.5.2PL0 Copyright (c) Steve Scherf et al.
# Submitted via: ExactAudioCopy v1.0b2
#
DISCID=b50c0e0d
DTITLE=Golec uOrkiestra - Golec uOrkiestra 5
DYEAR=2009
DGENRE=Folk/Rock
TTITLE0=Góralskie tango
TTITLE1=Wujek Louis song
TTITLE2=Rozgwieżdżona noc
TTITLE3=Kołysanka dla Tosi
TTITLE4=Życie jest muzyką
TTITLE5=Czar mi daj
TTITLE6=Koniakowskie stringi
TTITLE7=Pięknie jest
TTITLE8=Ja potrzebuję Ciebie
TTITLE9=Podaruj mi
TTITLE10=Bo lato Rozpala
TTITLE11=Za oknem wiatr
TTITLE12=Nie chcę żadnej sławy
EXTD=
EXTT0=
EXTT1=
EXTT2=
EXTT3=
EXTT4=
EXTT5=
EXTT6=
EXTT7=
EXTT8=
EXTT9=
EXTT10=
EXTT11=
EXTT12=
PLAYORDER=
